<svg width="22" height="20" viewBox="0 0 22 20" fill="none" xmlns="http://www.w3.org/2000/svg">
<path d="M8.13698 0.263467C8.44073 -0.0821813 8.93895 -0.0885594 9.24978 0.249222C9.56061 0.587003 9.56634 1.14103 9.26259 1.48668L2.61029 9.055L21.2347 9.18586C21.6599 9.18881 22.0026 9.58295 22 10.0662C21.9974 10.5494 21.6505 10.9388 21.2253 10.9358L2.73569 10.8063L9.66909 18.5057C9.94587 18.8131 9.97384 19.2926 9.7528 19.6347L9.66989 19.7433C9.3628 20.0852 8.86455 20.0856 8.55702 19.7441L0.230883 10.4986C-0.074304 10.1597 -0.0773225 9.61074 0.224115 9.26773L8.13698 0.263467Z" fill="#3CA02D"/>
</svg>
