<svg width="375" height="44" viewBox="0 0 375 44" fill="none" xmlns="http://www.w3.org/2000/svg">
<rect width="375" height="44" fill="white"/>
<rect x="18.5" y="12" width="32" height="20" rx="4" fill="#23C16B"/>
<path d="M35.666 17.5156V26H34.5996V18.6172H34.5527L32.4902 19.9883V18.9219L34.5996 17.5156H35.666Z" fill="white"/>
<rect x="52.5" y="12" width="32" height="20" rx="4" fill="#FFB323"/>
<path d="M65.7754 26L65.7637 25.2266L68.6582 22.1797C69.6602 21.1133 70.1406 20.5391 70.1465 19.7539C70.1406 18.8809 69.4141 18.3184 68.459 18.3125C67.4453 18.3184 66.8125 18.957 66.8066 19.9062H65.8105C65.7988 18.4062 66.959 17.3984 68.4941 17.3984C70.0352 17.3984 71.125 18.4355 71.1309 19.7539C71.125 20.7031 70.6855 21.4414 69.1855 22.9883L67.2402 24.9922V25.0625H71.2832V26H65.7754Z" fill="white"/>
<rect x="86.5" y="12" width="32" height="20" rx="4" fill="#D3180C"/>
<path d="M102.523 26.1172C100.836 26.1172 99.623 25.2148 99.5703 23.8672H100.637C100.695 24.6758 101.498 25.1797 102.512 25.1797C103.631 25.1797 104.439 24.5762 104.445 23.6914C104.439 22.7656 103.701 22.1152 102.383 22.1094H101.691V21.1836H102.383C103.414 21.1836 104.135 20.6035 104.129 19.7305C104.135 18.8809 103.514 18.3184 102.547 18.3125C101.639 18.3184 100.812 18.8164 100.766 19.6484H99.7461C99.7988 18.3008 101.053 17.3984 102.559 17.3984C104.176 17.3984 105.16 18.459 105.148 19.6719C105.16 20.6387 104.598 21.3418 103.707 21.5938V21.6523C104.814 21.8223 105.482 22.6133 105.477 23.6914C105.482 25.0859 104.217 26.1172 102.523 26.1172Z" fill="white"/>
<rect x="120.5" y="12" width="32" height="20" rx="4" fill="#23C16B"/>
<path d="M133.342 24.2656V23.3984L137.162 17.5156H138.463V23.3398H139.646V24.2656H138.463V26H137.455V24.2656H133.342ZM134.479 23.3398H137.455V18.8516H137.35L134.479 23.2695V23.3398Z" fill="white"/>
<rect x="154.5" y="12" width="32" height="20" rx="4" fill="#D3180C"/>
<path d="M170.482 26.1172C168.953 26.1172 167.793 25.1738 167.729 23.8672H168.748C168.824 24.623 169.562 25.1855 170.482 25.1914C171.584 25.1855 172.381 24.3828 172.381 23.3164C172.381 22.2148 171.555 21.4004 170.412 21.3945C169.697 21.3828 169.141 21.6055 168.83 22.1562H167.811L168.408 17.5156H173.002V18.4531H169.287L168.971 20.9375H169.053C169.434 20.6445 170.002 20.4453 170.6 20.4453C172.217 20.4453 173.406 21.6406 173.412 23.293C173.406 24.9336 172.176 26.1172 170.482 26.1172Z" fill="white"/>
<rect x="188.5" y="12" width="32" height="20" rx="4" fill="#23C16B"/>
<path d="M204.57 26.1172C203.1 26.0996 201.477 25.2266 201.477 22.0859C201.477 19.0801 202.707 17.3984 204.699 17.3984C206.193 17.3984 207.236 18.3184 207.453 19.6484H206.41C206.217 18.8984 205.643 18.3359 204.699 18.3359C203.305 18.3359 202.467 19.5254 202.473 21.5703H202.578C203.064 20.8613 203.844 20.4453 204.758 20.4453C206.264 20.4453 207.523 21.6172 207.523 23.2578C207.523 24.8574 206.357 26.1348 204.57 26.1172ZM202.613 23.2812C202.619 24.2773 203.434 25.1855 204.57 25.1914C205.666 25.1855 206.498 24.3242 206.504 23.2695C206.498 22.2266 205.701 21.377 204.594 21.3711C203.48 21.377 202.625 22.2793 202.613 23.2812Z" fill="white"/>
<rect x="222.5" y="12" width="32" height="20" rx="4" fill="#FFB323"/>
<path d="M236.256 26L240.146 18.5117V18.4531H235.658V17.5156H241.236V18.5L237.357 26H236.256Z" fill="white"/>
<rect x="256.5" y="12" width="32" height="20" rx="4" fill="#D3180C"/>
<path d="M272.494 26.1172C270.707 26.1172 269.477 25.127 269.482 23.75C269.477 22.6543 270.238 21.7461 271.205 21.5938V21.5469C270.361 21.3535 269.805 20.5742 269.811 19.6484C269.805 18.3535 270.941 17.3984 272.494 17.3984C274.041 17.3984 275.178 18.3535 275.189 19.6484C275.178 20.5742 274.615 21.3535 273.783 21.5469V21.5938C274.744 21.7461 275.506 22.6543 275.518 23.75C275.506 25.127 274.264 26.1172 272.494 26.1172ZM270.537 23.6914C270.52 24.582 271.275 25.1855 272.494 25.1914C273.707 25.1855 274.463 24.582 274.463 23.6914C274.463 22.7539 273.637 22.0625 272.494 22.0625C271.357 22.0625 270.52 22.7539 270.537 23.6914ZM270.83 19.7305C270.836 20.5859 271.521 21.166 272.494 21.1719C273.461 21.166 274.158 20.5859 274.158 19.7305C274.158 18.8809 273.484 18.3066 272.494 18.3125C271.486 18.3066 270.836 18.8809 270.83 19.7305Z" fill="white"/>
<rect x="290.5" y="12" width="32" height="20" rx="4" fill="#D3180C"/>
<path d="M306.441 17.3984C307.9 17.416 309.523 18.2949 309.523 21.418C309.523 24.4355 308.287 26.1172 306.301 26.1172C304.807 26.1172 303.758 25.2031 303.547 23.8555H304.59C304.777 24.6172 305.357 25.1797 306.301 25.1797C307.684 25.1797 308.527 23.9844 308.539 21.9219H308.422C307.936 22.625 307.156 23.0469 306.254 23.0469C304.736 23.0469 303.477 21.8809 303.477 20.2461C303.477 18.6641 304.637 17.3809 306.441 17.3984ZM304.508 20.2344C304.502 21.2832 305.299 22.1211 306.406 22.1211C307.514 22.1211 308.375 21.207 308.375 20.2109C308.375 19.2383 307.561 18.3242 306.441 18.3242C305.334 18.3242 304.496 19.1855 304.508 20.2344Z" fill="white"/>
<rect x="324.5" y="12" width="32" height="20" rx="4" fill="#D3180C"/>
<path d="M338.092 17.5156V26H337.025V18.6172H336.979L334.916 19.9883V18.9219L337.025 17.5156H338.092ZM343.131 26.1172C341.25 26.1172 340.16 24.5352 340.166 21.7578C340.16 19.0039 341.262 17.3984 343.131 17.3984C344.994 17.3984 346.096 19.0039 346.096 21.7578C346.096 24.5352 345.012 26.1172 343.131 26.1172ZM341.186 21.7578C341.191 23.9551 341.9 25.1797 343.131 25.1797C344.355 25.1797 345.07 23.9551 345.064 21.7578C345.07 19.5605 344.35 18.3184 343.131 18.3125C341.912 18.3184 341.191 19.5605 341.186 21.7578Z" fill="white"/>
</svg>
