<svg width="327" height="132" viewBox="0 0 327 132" fill="none" xmlns="http://www.w3.org/2000/svg">
<g filter="url(#filter0_b_16413_7543)">
<rect y="18" width="327" height="114" rx="24" fill="#B6D8BC"/>
</g>
<circle cx="63.5" cy="53.5" r="52" fill="white" stroke="#3CA02D" stroke-width="3"/>
<circle cx="51" cy="51" r="10" fill="#B6D8BC"/>
<rect x="76" y="18" width="251" height="114" rx="24" fill="#3CA02D"/>
<path d="M173 75H272" stroke="white" stroke-width="2"/>
<path d="M106.566 54.4336C109.311 54.4336 111.4 56.1719 111.41 58.5742C111.4 60.957 109.311 62.6855 106.566 62.6953C103.783 62.6855 101.693 60.957 101.703 58.5742C101.693 56.1719 103.783 54.4336 106.566 54.4336ZM104.379 65.7031V63.5547H116.527V68.5938H107.172V69.4922H116.957V71.6797H104.438V66.5625H113.715V65.7031H104.379ZM104.418 58.5742C104.408 59.7754 105.326 60.4199 106.566 60.4297C107.787 60.4199 108.686 59.7754 108.676 58.5742C108.686 57.373 107.787 56.7285 106.566 56.7188C105.326 56.7285 104.408 57.373 104.418 58.5742ZM113.715 62.8711V53.9453H116.527V62.8711H113.715ZM127.453 56.7578C127.453 58.8379 128.527 60.8691 131.438 61.7383L129.953 63.9062C128.088 63.3203 126.818 62.1777 126.066 60.7129C125.295 62.4121 123.957 63.75 121.945 64.4141L120.422 62.2266C123.508 61.2207 124.611 58.8379 124.621 56.4648V54.9219H127.453V56.7578ZM122.922 68.3398C122.912 66.1328 125.314 64.8145 129.113 64.8242C132.844 64.8145 135.207 66.1328 135.207 68.3398C135.207 70.5859 132.844 71.8945 129.113 71.875C125.314 71.8945 122.912 70.5859 122.922 68.3398ZM125.734 68.3398C125.725 69.2871 126.887 69.6777 129.113 69.6875C131.32 69.6777 132.424 69.2871 132.434 68.3398C132.424 67.4609 131.32 67.002 129.113 67.0117C126.887 67.002 125.725 67.4609 125.734 68.3398ZM132.219 64.4922V53.9453H135.031V57.9883H137.355V60.3125H135.031V64.4922H132.219ZM162.84 62.5781V64.8047H146.512V62.5781H153.25V60.332H156.062V62.5781H162.84ZM147.312 59.2383C151.531 58.7305 153.211 56.6699 153.211 54.7656V54.2578H156.082V54.7656C156.082 56.7676 157.703 58.7305 162.02 59.2383L160.945 61.4258C157.859 60.9863 155.74 59.7656 154.617 58.0566C153.484 59.7559 151.375 60.9863 148.309 61.4258L147.312 59.2383ZM148.328 68.0859V65.918H160.887V71.875H158.074V68.0859H148.328ZM188.617 62.168V64.3945H172.27V62.168H188.617ZM173.344 69.6094C177.533 69.1602 179.027 67.3047 179.047 65.5664V65.293H181.898V65.5664C181.889 67.3047 183.422 69.1602 187.602 69.6094L186.605 71.7773C183.617 71.4062 181.586 70.3027 180.473 68.7695C179.369 70.3027 177.348 71.4062 174.34 71.7773L173.344 69.6094ZM173.773 61.1328V54.7852H180.102V57.0117H176.586V58.9258C177.865 58.8965 178.93 58.7988 180.141 58.5547L180.355 60.7812C178.588 61.123 177.094 61.1426 174.926 61.1328H173.773ZM180.961 61.1328V54.7852H187.094V57.0117H183.773V58.9453H187.191V61.1328H180.961ZM205.832 53.9453V57.9883H208.156V60.3125H205.832V64.3555H203.02V53.9453H205.832ZM192.023 63.6133V55.0391H194.797V57.168H197.98V55.0391H200.793V63.6133H192.023ZM193.234 67.3633V65.1172H199.25V71.8359H196.457V67.3633H193.234ZM194.797 61.4258H197.98V59.3359H194.797V61.4258ZM200.012 67.3633V65.1172H205.832V71.8359H203.059V67.3633H200.012ZM216.621 55.1172C219.473 55.1074 221.621 56.9727 221.641 59.5703C221.621 62.1777 219.473 64.0332 216.621 64.0234C213.799 64.0332 211.602 62.1777 211.602 59.5703C211.602 56.9727 213.799 55.1074 216.621 55.1172ZM210.918 66.0742C214.072 66.084 218.457 66.0352 222.246 65.5078L222.461 67.5391C218.535 68.3008 214.336 68.3398 211.23 68.3398L210.918 66.0742ZM214.395 59.5703C214.395 60.9082 215.371 61.6113 216.621 61.6016C217.9 61.6113 218.887 60.9082 218.906 59.5703C218.887 58.2617 217.91 57.5391 216.621 57.5391C215.361 57.5391 214.395 58.2617 214.395 59.5703ZM223.203 71.9141V53.9453H225.996V71.9141H223.203ZM252.047 53.9453V65.1562H249.371V60.5273H248.258V64.5703H245.621V54.2773H248.258V58.2422H249.371V53.9453H252.047ZM236.5 57.8711V55.7031H239.449V54.1211H242.242V55.7031H245.172V57.8711H236.5ZM236.969 61.5039C236.969 59.6191 238.629 58.3496 240.855 58.3594C243.15 58.3496 244.801 59.6191 244.801 61.5039C244.801 63.3594 243.15 64.6191 240.855 64.6289C238.629 64.6191 236.969 63.3594 236.969 61.5039ZM239.488 61.5039C239.479 62.2363 240.035 62.6562 240.855 62.6562C241.705 62.6562 242.262 62.2363 242.262 61.5039C242.262 60.7617 241.705 60.3516 240.855 60.3711C240.045 60.3516 239.479 60.7617 239.488 61.5039ZM239.605 68.5742C239.596 66.4844 241.979 65.2832 245.855 65.2734C249.771 65.2832 252.125 66.4844 252.145 68.5742C252.125 70.6836 249.771 71.8945 245.855 71.875C241.979 71.8945 239.596 70.6836 239.605 68.5742ZM242.418 68.5742C242.408 69.4043 243.551 69.7754 245.855 69.7656C248.189 69.7754 249.293 69.4043 249.312 68.5742C249.293 67.7246 248.189 67.3633 245.855 67.3633C243.551 67.3633 242.408 67.7246 242.418 68.5742ZM272.23 62.7148V64.9609H255.883V62.7148H262.602V61.4062H257.953V54.3945H260.707V55.8984H267.367V54.3945H270.141V61.4062H265.434V62.7148H272.23ZM257.699 68.2227V66.0156H270.258V71.875H267.445V68.2227H257.699ZM260.707 59.1992H267.367V57.9492H260.707V59.1992ZM279.211 68.5156L277.473 74.1602H275.188L276.125 68.5156H279.211ZM117.777 86.4648V88.4961H111.02V89.4531H115.863V93.9844H106.098V94.7266H116.293V96.7773H103.324V92.1094H113.07V91.4453H103.324V89.4531H108.246V88.4961H101.527V86.4648H117.777ZM102.074 84.043C105.57 83.9062 107.201 83.1836 107.777 82.3633H102.992V80.293H108.207V78.9648H111.02V80.293H116.254V82.3633H111.439C112.006 83.1836 113.646 83.9062 117.191 84.043L116.371 86.1133C112.982 85.957 110.746 85.1465 109.613 83.8965C108.48 85.1465 106.264 85.957 102.836 86.1133L102.074 84.043ZM131.438 87.0703V89.2578H128.059V91.2891C129.445 91.2109 130.842 91.084 132.16 90.8984L132.375 92.9102C128.449 93.7109 124.25 93.7109 121.145 93.7695L120.832 91.4648C122.121 91.4648 123.654 91.4648 125.266 91.416V89.2578H122.043V80.3711H131.398V82.5977H124.895V83.75H131.047V85.8984H124.895V87.0703H131.438ZM133.117 96.9141V78.9453H135.91V96.9141H133.117ZM154.551 79.9414V81.5039C154.561 83.0078 154.561 84.6777 154.18 86.7969H156.426V89.0234H140.039V86.7969H151.309C151.68 84.9414 151.729 83.5254 151.738 82.168H142.012V79.9414H154.551ZM142.109 96.5625V90.4492H144.863V94.3164H155.059V96.5625H142.109ZM174.383 78.9453V87.9297H171.57V78.9453H174.383ZM159.578 86.0352C163.963 85.2832 165.555 83.6914 165.809 81.7773H160.555V79.5312H168.914C168.924 84.5605 166.326 87.1777 160.535 88.2812L159.578 86.0352ZM162.234 90.7422V88.5938H174.383V93.5938H165.125V94.5312H174.812V96.6992H162.293V91.582H171.531V90.7422H162.234ZM194.195 78.9453V96.875H191.5V78.9453H194.195ZM178.746 86.7188C178.736 82.6465 180.279 80.1562 182.652 80.1562C184.811 80.1562 186.295 82.1387 186.588 85.4688H187.77V79.1797H190.426V96.0742H187.77V87.6953H186.607C186.373 91.2109 184.869 93.3203 182.652 93.3203C180.279 93.3203 178.736 90.8203 178.746 86.7188ZM181.324 86.7188C181.314 89.4238 181.793 90.625 182.652 90.625C183.551 90.625 184.059 89.4238 184.059 86.7188C184.059 84.0332 183.551 82.8125 182.652 82.8125C181.793 82.8125 181.314 84.0332 181.324 86.7188ZM207.609 79.7656V81.7578H210.793V79.7656H213.605V87.5977H204.836V79.7656H207.609ZM206.613 90.7812V88.6328H218.645V93.6719H209.406V94.5703H219.113V96.7773H206.633V91.6797H215.832V90.7812H206.613ZM207.609 85.4102H210.793V83.8477H207.609V85.4102ZM215.832 88.0273V78.9453H218.645V82.3047H220.969V84.5703H218.645V88.0273H215.832ZM238.809 78.9648V92.1289H236.035V88.5938H232.168V86.3477H236.035V84.5703H232.432C231.162 87.2656 228.623 89.248 225.039 90.3125L223.867 88.125C227.568 86.9727 229.824 84.9707 230.283 82.5195H224.844V80.293H233.34C233.34 81.0059 233.271 81.6895 233.154 82.3438H236.035V78.9648H238.809ZM226.875 96.582V90.8203H229.746V94.3359H239.277V96.582H226.875ZM257.156 78.9453V85.8398H259.695V88.1641H257.156V96.875H254.383V78.9453H257.156ZM242.84 83.7891V81.5625H246.727V79.2383H249.539V81.5625H253.328V83.7891H242.84ZM243.484 88.9648C243.465 86.4355 245.447 84.6387 248.133 84.6484C250.75 84.6387 252.752 86.4355 252.762 88.9648C252.752 91.4941 250.75 93.2812 248.133 93.2812C245.447 93.2812 243.465 91.4941 243.484 88.9648ZM246.18 88.9648C246.16 90.2832 246.98 91.0059 248.133 90.9961C249.246 91.0059 250.057 90.2832 250.066 88.9648C250.057 87.6758 249.246 86.9238 248.133 86.9141C246.98 86.9238 246.16 87.6758 246.18 88.9648ZM268.102 83.2617C268.102 86.1914 268.717 89.1602 271.207 90.7812L269.684 92.9492C268.209 92.0605 267.291 90.6445 266.734 88.9551C266.119 90.8398 265.104 92.4219 263.551 93.3594L261.852 91.2695C264.557 89.5801 265.367 86.4258 265.367 83.3984V80.4297H268.102V83.2617ZM269.332 87.1484V84.8633H271.422V79.1797H274.039V96.0742H271.422V87.1484H269.332ZM275.113 96.875V78.9453H277.809V96.875H275.113ZM297.895 92.5586V94.8438H281.508V92.5586H285.043V88.3008C283.695 87.4512 282.885 86.1816 282.895 84.6094C282.885 81.6895 285.766 79.7461 289.672 79.7461C293.568 79.7461 296.479 81.6895 296.488 84.6094C296.479 86.1523 295.697 87.4023 294.398 88.2422V92.5586H297.895ZM285.688 84.6094C285.678 86.3086 287.23 87.3047 289.672 87.3047C292.094 87.3047 293.695 86.3086 293.695 84.6094C293.695 82.8906 292.094 81.9434 289.672 81.9531C287.23 81.9434 285.678 82.8906 285.688 84.6094ZM287.816 92.5586H291.547V89.3164C290.961 89.4141 290.326 89.4727 289.672 89.4727C289.018 89.4727 288.402 89.4141 287.816 89.3164V92.5586ZM305.246 80.8594L304.953 90.6836H302.16L301.867 80.8594H305.246ZM301.789 93.418C301.77 92.4609 302.58 91.6797 303.547 91.6797C304.484 91.6797 305.314 92.4609 305.324 93.418C305.314 94.4043 304.484 95.1953 303.547 95.1953C302.58 95.1953 301.77 94.4043 301.789 93.418Z" fill="white"/>
<ellipse cx="53.8014" cy="38.4589" rx="2" ry="3" transform="rotate(-17.2946 53.8014 38.4589)" fill="#3CA02D"/>
<path d="M71.5911 48.0362C72.4771 47.593 72.9002 46.7078 73.0076 45.8472C73.116 44.9781 72.9311 44.0095 72.4844 43.1167C72.0377 42.2239 71.3735 41.495 70.613 41.0607C69.8599 40.6305 68.8978 40.4384 68.0118 40.8816C67.1258 41.3249 66.7026 42.21 66.5952 43.0707C66.4868 43.9397 66.6718 44.9084 67.1184 45.8012C67.5651 46.694 68.2294 47.4229 68.9898 47.8572C69.743 48.2873 70.7051 48.4795 71.5911 48.0362Z" fill="white" stroke="#3CA02D" stroke-width="2"/>
<ellipse cx="74.8014" cy="30.4589" rx="2" ry="3" transform="rotate(-17.2946 74.8014 30.4589)" fill="#3CA02D"/>
<path d="M83 57.5L63.5 64L62.5 78H75.5L90 76.5L93.5 73L96 68L91 59.5L83 57.5Z" fill="white" stroke="white" stroke-width="2.5" stroke-linecap="round" stroke-linejoin="round"/>
<path d="M48 69L82 58C98.554 56.0895 98.5 76 87.5 77C76.5 78 65.9177 79.6744 55 78" stroke="#3CA02D" stroke-width="2.5" stroke-linecap="round" stroke-linejoin="round"/>
<defs>
<filter id="filter0_b_16413_7543" x="-50" y="-32" width="427" height="214" filterUnits="userSpaceOnUse" color-interpolation-filters="sRGB">
<feFlood flood-opacity="0" result="BackgroundImageFix"/>
<feGaussianBlur in="BackgroundImageFix" stdDeviation="25"/>
<feComposite in2="SourceAlpha" operator="in" result="effect1_backgroundBlur_16413_7543"/>
<feBlend mode="normal" in="SourceGraphic" in2="effect1_backgroundBlur_16413_7543" result="shape"/>
</filter>
</defs>
</svg>
