<svg width="32" height="32" viewBox="0 0 32 32" fill="none" xmlns="http://www.w3.org/2000/svg">
<path d="M24.6121 17.1852C24.6121 16.771 24.9478 16.4352 25.3621 16.4352C25.7763 16.4352 26.1121 16.771 26.1121 17.1852H24.6121ZM22.5985 9.46798C22.9109 9.74007 22.9435 10.2138 22.6714 10.5261C22.3993 10.8384 21.9255 10.8711 21.6132 10.599L22.5985 9.46798ZM22.2417 5.33331C22.2417 4.9191 22.5775 4.58331 22.9917 4.58331C23.4059 4.58331 23.7417 4.9191 23.7417 5.33331H22.2417ZM22.9917 11.0226H23.7417C23.7417 11.4368 23.4059 11.7726 22.9917 11.7726V11.0226ZM17.3024 11.7726C16.8882 11.7726 16.5524 11.4368 16.5524 11.0226C16.5524 10.6084 16.8882 10.2726 17.3024 10.2726V11.7726ZM7.1491 17.1852C7.1491 22.0074 11.0583 25.9166 15.8806 25.9166V27.4166C10.2299 27.4166 5.6491 22.8359 5.6491 17.1852H7.1491ZM15.8806 25.9166C20.7028 25.9166 24.6121 22.0074 24.6121 17.1852H26.1121C26.1121 22.8359 21.5313 27.4166 15.8806 27.4166V25.9166ZM15.8806 8.45368C11.0583 8.45368 7.1491 12.3629 7.1491 17.1852H5.6491C5.6491 11.5345 10.2299 6.95368 15.8806 6.95368V8.45368ZM21.6132 10.599C20.079 9.26234 18.0752 8.45368 15.8806 8.45368V6.95368C18.451 6.95368 20.8016 7.90251 22.5985 9.46798L21.6132 10.599ZM23.7417 5.33331V11.0226H22.2417V5.33331H23.7417ZM22.9917 11.7726H17.3024V10.2726H22.9917V11.7726Z" fill="#979C9E"/>
</svg>
