<svg width="327" height="132" viewBox="0 0 327 132" fill="none" xmlns="http://www.w3.org/2000/svg">
<g filter="url(#filter0_b_16490_6977)">
<rect y="18" width="327" height="114" rx="24" fill="#B6D8BC"/>
</g>
<circle cx="63.5" cy="53.5" r="52" fill="white" stroke="#3CA02D" stroke-width="3"/>
<circle cx="51" cy="51" r="10" fill="#B6D8BC"/>
<rect x="76" y="18" width="251" height="114" rx="24" fill="#3CA02D"/>
<path d="M106.391 54.7656C109.174 54.7559 111.234 56.5234 111.234 58.9844C111.234 61.4551 109.174 63.2031 106.391 63.2031C103.637 63.2031 101.508 61.4551 101.527 58.9844C101.508 56.5234 103.637 54.7559 106.391 54.7656ZM102.973 71.3672V64.5898H105.727V69.0234C106.605 68.9258 107.445 68.75 108.188 68.4375L108.52 69.5508C110.404 68.8965 111.205 67.5781 111.234 66.2305H108.715V64.043H116.43V66.2305H113.91C113.949 67.7539 114.809 69.1211 117.094 69.6875L115.824 71.8164C114.242 71.3672 113.197 70.5273 112.572 69.4336C111.938 70.5078 110.902 71.3477 109.359 71.8164L108.666 70.6543C107.24 71.2402 105.678 71.377 104.027 71.3672H102.973ZM104.262 58.9844C104.242 60.2148 105.17 60.918 106.391 60.918C107.611 60.918 108.52 60.2148 108.52 58.9844C108.52 57.7539 107.611 57.0605 106.391 57.0703C105.17 57.0605 104.242 57.7539 104.262 58.9844ZM112.895 63.3789V53.9453H115.727V57.5586H118.031V59.8828H115.727V63.3789H112.895ZM137.102 63.0273V65.2344H120.754V63.0273H137.102ZM122.336 58.1641C122.326 55.8789 124.953 54.4629 128.918 54.4727C132.863 54.4629 135.49 55.8789 135.5 58.1641C135.49 60.4883 132.863 61.9238 128.918 61.9336C124.953 61.9238 122.326 60.4883 122.336 58.1641ZM122.688 71.582V66.3281H125.5V69.3359H135.227V71.582H122.688ZM125.266 58.1641C125.246 59.1895 126.564 59.6582 128.918 59.6484C131.271 59.6582 132.59 59.1895 132.59 58.1641C132.59 57.1973 131.271 56.6895 128.918 56.6797C126.564 56.6895 125.246 57.1973 125.266 58.1641ZM153.309 58.6328C153.289 61.3184 154.549 64.4629 157.605 65.8594L156.043 68.0664C154.07 67.1777 152.723 65.459 151.932 63.418C151.15 65.6836 149.744 67.5781 147.684 68.5352L146.062 66.3086C149.178 64.873 150.457 61.5625 150.457 58.6328V57.9297H146.805V55.6445H156.785V57.9297H153.309V58.6328ZM157.918 71.875V53.9453H160.73V60.6641H163.27V62.9883H160.73V71.875H157.918ZM180.875 53.9453V71.9141H178.082V53.9453H180.875ZM166.734 67.7734V60.2734H172.418V57.6562H166.734V55.4102H175.289V62.4805H169.645V65.4688C172.301 65.4395 174.508 65.293 176.949 64.8828L177.184 67.1484C174.352 67.666 171.715 67.7637 168.375 67.7734H166.734ZM199.301 53.9453V60.6836H201.703V62.9883H199.301V71.8164H196.488V53.9453H199.301ZM184.789 66.6797C188.9 64.6094 191.107 61.9434 191.596 58.0469H185.863V55.7422H194.457C194.457 61.2012 192.455 65.8398 186.371 68.8281L184.789 66.6797ZM225.977 53.9453V71.875H223.125V53.9453H225.977ZM210.84 66.6602C215.4 64.5117 217.314 61.8555 217.715 57.9883H211.855V55.8008H220.586C220.576 61.3281 218.828 65.8301 212.305 68.8867L210.84 66.6602ZM246.492 63.4766V65.7031H230.105V63.4766H236.922V62.3828H232.117V57.2656H241.727V56.4258H232.098V54.2578H244.559V59.2773H234.91V60.2344H244.871V62.3828H239.695V63.4766H246.492ZM231.941 68.8086V66.6016H244.656V71.8164H241.824V68.8086H231.941ZM260.055 61.0742V63.3398H256.734V66.084C258.121 66.0254 259.498 65.9375 260.816 65.8008L261.031 67.832C257.135 68.4473 253.15 68.457 249.801 68.457L249.488 66.1914C250.865 66.2012 252.379 66.2012 253.922 66.1719V63.3398H250.602V55.5078H259.977V57.7148H253.395V61.0742H260.055ZM261.773 71.9141V53.9453H264.566V71.9141H261.773ZM275.629 65.2148C275.619 66.6406 276.146 68.0762 277.533 69.0918C278.91 68.0273 279.438 66.5137 279.457 65.2148V64.6094H282.23V65.2148C282.23 67.0898 283.09 68.8281 285.57 69.5703L284.145 71.6211C282.465 71.0449 281.391 69.9902 280.785 68.6328C280.18 69.9902 279.135 71.1523 277.523 71.7773C275.912 71.1914 274.877 70.0684 274.271 68.7207C273.637 70.0098 272.572 71.0449 270.98 71.6211L269.613 69.5703C272.006 68.7891 272.885 67.002 272.895 65.2148V64.6094H275.629V65.2148ZM268.891 59.1602C268.881 56.6699 270.971 54.834 273.715 54.8438C275.941 54.834 277.777 56.123 278.314 58.0078H281.078V53.9453H283.871V63.9258H281.078V60.2734H278.334C277.807 62.1973 275.961 63.5059 273.715 63.4961C270.971 63.5059 268.881 61.6797 268.891 59.1602ZM271.586 59.1602C271.576 60.4199 272.475 61.1719 273.715 61.1719C274.916 61.1719 275.805 60.4199 275.805 59.1602C275.805 57.8711 274.916 57.168 273.715 57.168C272.475 57.168 271.576 57.8711 271.586 59.1602ZM292.961 55.1758C295.373 55.166 297.199 57.1289 297.58 60.3125H300.402V53.9453H303.176V71.9141H300.402V62.5391H297.609C297.316 65.957 295.451 68.0469 292.961 68.0469C290.217 68.0469 288.244 65.5664 288.254 61.582C288.244 57.6562 290.217 55.166 292.961 55.1758ZM290.949 61.582C290.939 64.1895 291.76 65.4883 292.961 65.4883C294.182 65.4883 294.973 64.1895 294.973 61.582C294.973 59.0234 294.182 57.7051 292.961 57.7148C291.76 57.7051 290.939 59.0234 290.949 61.582ZM117.855 92.5586V94.8438H101.469V92.5586H105.004V88.3008C103.656 87.4512 102.846 86.1816 102.855 84.6094C102.846 81.6895 105.727 79.7461 109.633 79.7461C113.529 79.7461 116.439 81.6895 116.449 84.6094C116.439 86.1523 115.658 87.4023 114.359 88.2422V92.5586H117.855ZM105.648 84.6094C105.639 86.3086 107.191 87.3047 109.633 87.3047C112.055 87.3047 113.656 86.3086 113.656 84.6094C113.656 82.8906 112.055 81.9434 109.633 81.9531C107.191 81.9434 105.639 82.8906 105.648 84.6094ZM107.777 92.5586H111.508V89.3164C110.922 89.4141 110.287 89.4727 109.633 89.4727C108.979 89.4727 108.363 89.4141 107.777 89.3164V92.5586ZM123.195 95.1953C122.229 95.1953 121.418 94.4043 121.438 93.418C121.418 92.4609 122.229 91.6797 123.195 91.6797C124.133 91.6797 124.963 92.4609 124.973 93.418C124.963 94.4043 124.133 95.1953 123.195 95.1953Z" fill="white"/>
<ellipse cx="53.8014" cy="38.4589" rx="2" ry="3" transform="rotate(-17.2946 53.8014 38.4589)" fill="#3CA02D"/>
<path d="M71.591 48.0362C72.4769 47.593 72.9001 46.7078 73.0075 45.8472C73.1159 44.9781 72.9309 44.0095 72.4843 43.1167C72.0376 42.2239 71.3734 41.495 70.6129 41.0607C69.8597 40.6305 68.8976 40.4384 68.0116 40.8816C67.1257 41.3249 66.7025 42.21 66.5951 43.0707C66.4867 43.9397 66.6717 44.9084 67.1183 45.8012C67.565 46.694 68.2292 47.4229 68.9897 47.8572C69.7429 48.2873 70.705 48.4795 71.591 48.0362Z" fill="white" stroke="#3CA02D" stroke-width="2"/>
<ellipse cx="74.8014" cy="30.4589" rx="2" ry="3" transform="rotate(-17.2946 74.8014 30.4589)" fill="#3CA02D"/>
<path d="M83 57.5L63.5 64L62.5 78H75.5L90 76.5L93.5 73L96 68L91 59.5L83 57.5Z" fill="white" stroke="white" stroke-width="2.5" stroke-linecap="round" stroke-linejoin="round"/>
<path d="M48 69L82 58C98.554 56.0895 98.5 76 87.5 77C76.5 78 65.9177 79.6744 55 78" stroke="#3CA02D" stroke-width="2.5" stroke-linecap="round" stroke-linejoin="round"/>
<defs>
<filter id="filter0_b_16490_6977" x="-50" y="-32" width="427" height="214" filterUnits="userSpaceOnUse" color-interpolation-filters="sRGB">
<feFlood flood-opacity="0" result="BackgroundImageFix"/>
<feGaussianBlur in="BackgroundImageFix" stdDeviation="25"/>
<feComposite in2="SourceAlpha" operator="in" result="effect1_backgroundBlur_16490_6977"/>
<feBlend mode="normal" in="SourceGraphic" in2="effect1_backgroundBlur_16490_6977" result="shape"/>
</filter>
</defs>
</svg>
